<svg xmlns="http://www.w3.org/2000/svg" xmlns:xlink="http://www.w3.org/1999/xlink" width="840" height="385.65"><rect width="840" height="385.65" rx="5" ry="5" class="a"/><svg y="0%" x="0%"><circle cx="20" cy="20" r="6" fill="#ff5f58"/><circle cx="40" cy="20" r="6" fill="#ffbd2e"/><circle cx="60" cy="20" r="6" fill="#18c132"/></svg><svg height="325.65" viewBox="0 0 80 32.565" width="800" x="15" xmlns="http://www.w3.org/2000/svg" xmlns:xlink="http://www.w3.org/1999/xlink" y="50"><style>@keyframes l{0%{transform:translateX(-80px)}12.6%{transform:translateX(-240px)}12.7%{transform:translateX(-480px)}12.8%{transform:translateX(-800px)}12.9%{transform:translateX(-960px)}13%{transform:translateX(-1120px)}13.1%{transform:translateX(-1280px)}13.2%{transform:translateX(-1440px)}13.3%{transform:translateX(-1680px)}13.4%{transform:translateX(-1840px)}13.5%{transform:translateX(-2000px)}13.6%{transform:translateX(-2240px)}13.7%{transform:translateX(-2400px)}13.8%{transform:translateX(-2560px)}13.9%{transform:translateX(-2800px)}14%{transform:translateX(-2960px)}14.1%{transform:translateX(-3120px)}14.2%{transform:translateX(-3280px)}14.3%{transform:translateX(-3520px)}14.4%{transform:translateX(-3680px)}14.5%{transform:translateX(-3920px)}14.6%{transform:translateX(-4080px)}14.7%{transform:translateX(-4240px)}14.8%{transform:translateX(-4480px)}14.9%{transform:translateX(-4640px)}15%{transform:translateX(-4880px)}15.1%{transform:translateX(-5040px)}27.7%{transform:translateX(-5120px)}35.6%{transform:translateX(-5280px)}37.3%{transform:translateX(-5360px)}49.8%{transform:translateX(-5440px)}62.4%{transform:translateX(-5520px)}74.9%{transform:translateX(-5600px)}87.5%{transform:translateX(-5680px)}to{transform:translateX(-5760px)}}.a{fill:#282d35}.f,.g,.h,.i{white-space:pre}.f{fill:#a8cc8c;font-weight:700}.g,.h,.i{fill:#fff}.h,.i{fill:#a8cc8c}.i{fill:#b9c0cb}</style><g font-family="Monaco,Consolas,Menlo,'Bitstream Vera Sans Mono','Powerline Symbols',monospace" font-size="1.67"><defs><symbol id="1"><text y="1.67" class="f">❯</text></symbol><symbol id="2"><text y="1.67" class="f">❯</text><text x="2.004" y="1.67" class="g">website-evidence-collector</text></symbol><symbol id="3"><text y="1.67" class="f">❯</text><text x="2.004" y="1.67" class="g">website-evidence-collector</text><text x="29.058" y="1.67" class="g">serve</text></symbol><symbol id="4"><text y="1.67" class="h">info</text><text x="4.008" y="1.67" class="i">:</text><text x="6.012" y="1.67" class="i">Running</text><text x="14.028" y="1.67" class="i">website-evidence-collector</text><text x="41.082" y="1.67" class="i">in</text><text x="44.088" y="1.67" class="i">server</text><text x="51.102" y="1.67" class="i">mode</text><text x="56.112" y="1.67" class="i">{&quot;timestamp&quot;:&quot;2024-11-27</text></symbol><symbol id="5"><text y="1.67" class="i">T12:13:25.882Z&quot;}</text></symbol><symbol id="6"><text y="1.67" class="h">info</text><text x="4.008" y="1.67" class="i">:</text><text x="6.012" y="1.67" class="i">Connect</text><text x="14.028" y="1.67" class="i">by</text><text x="17.034" y="1.67" class="i">opening</text><text x="25.05" y="1.67" class="i">the</text><text x="29.058" y="1.67" class="i">following</text><text x="39.078" y="1.67" class="i">url</text><text x="43.086" y="1.67" class="i">in</text><text x="46.092" y="1.67" class="i">your</text><text x="51.102" y="1.67" class="i">browser:</text><text x="60.12" y="1.67" class="i">http://localhost:808</text></symbol><symbol id="7"><text y="1.67" class="i">0/</text><text x="3.006" y="1.67" class="i">{&quot;timestamp&quot;:&quot;2024-11-27T12:13:25.884Z&quot;}</text></symbol><symbol id="a"><path fill="transparent" d="M0 0h80v16H0z"/></symbol><symbol id="b"><path fill="#6f7683" d="M0 0h1.102v2.171H0z"/></symbol></defs><path class="a" d="M0 0h80v32.565H0z"/><g style="animation-duration:7.973685s;animation-iteration-count:infinite;animation-name:l;animation-timing-function:steps(1,end)"><svg width="5840"><svg><use xlink:href="#a"/><use xlink:href="#b" x="-.004"/></svg><svg x="80"><use xlink:href="#a"/><use xlink:href="#b" x="1.996"/><use xlink:href="#1"/></svg><svg x="160"><use xlink:href="#a"/><use xlink:href="#b" x="1.996"/><use xlink:href="#1"/></svg><svg x="240"><use xlink:href="#a"/><use xlink:href="#b" x="1.996"/><use xlink:href="#1"/></svg><svg x="320"><use xlink:href="#a"/><use xlink:href="#b" x="1.996"/><use xlink:href="#1"/></svg><svg x="400"><use xlink:href="#a"/><use xlink:href="#b" x="1.996"/><use xlink:href="#1"/></svg><svg x="480"><use xlink:href="#a"/><use xlink:href="#b" x="1.996"/><use xlink:href="#1"/></svg><svg x="560"><use xlink:href="#a"/><use xlink:href="#b" x="1.996"/><use xlink:href="#1"/></svg><svg x="640"><use xlink:href="#a"/><use xlink:href="#b" x="1.996"/><use xlink:href="#1"/></svg><svg x="720"><use xlink:href="#a"/><use xlink:href="#b" x="1.996"/><use xlink:href="#1"/></svg><svg x="800"><use xlink:href="#a"/><use xlink:href="#b" x="1.996"/><use xlink:href="#1"/></svg><svg x="880"><use xlink:href="#a"/><use xlink:href="#b" x="1.996"/><use xlink:href="#1"/></svg><svg x="960"><use xlink:href="#a"/><use xlink:href="#b" x="1.996"/><use xlink:href="#1"/></svg><svg x="1040"><use xlink:href="#a"/><use xlink:href="#b" x="2.996"/><text y="1.67" class="f">❯</text><text x="2.004" y="1.67" class="g">w</text></svg><svg x="1120"><use xlink:href="#a"/><use xlink:href="#b" x="3.996"/><text y="1.67" class="f">❯</text><text x="2.004" y="1.67" class="g">we</text></svg><svg x="1200"><use xlink:href="#a"/><use xlink:href="#b" x="4.996"/><text y="1.67" class="f">❯</text><text x="2.004" y="1.67" class="g">web</text></svg><svg x="1280"><use xlink:href="#a"/><use xlink:href="#b" x="5.996"/><text y="1.67" class="f">❯</text><text x="2.004" y="1.67" class="g">webs</text></svg><svg x="1360"><use xlink:href="#a"/><use xlink:href="#b" x="6.996"/><text y="1.67" class="f">❯</text><text x="2.004" y="1.67" class="g">websi</text></svg><svg x="1440"><use xlink:href="#a"/><use xlink:href="#b" x="7.996"/><text y="1.67" class="f">❯</text><text x="2.004" y="1.67" class="g">websit</text></svg><svg x="1520"><use xlink:href="#a"/><use xlink:href="#b" x="8.996"/><text y="1.67" class="f">❯</text><text x="2.004" y="1.67" class="g">website</text></svg><svg x="1600"><use xlink:href="#a"/><use xlink:href="#b" x="9.996"/><text y="1.67" class="f">❯</text><text x="2.004" y="1.67" class="g">website-</text></svg><svg x="1680"><use xlink:href="#a"/><use xlink:href="#b" x="10.996"/><text y="1.67" class="f">❯</text><text x="2.004" y="1.67" class="g">website-e</text></svg><svg x="1760"><use xlink:href="#a"/><use xlink:href="#b" x="11.996"/><text y="1.67" class="f">❯</text><text x="2.004" y="1.67" class="g">website-ev</text></svg><svg x="1840"><use xlink:href="#a"/><use xlink:href="#b" x="12.996"/><text y="1.67" class="f">❯</text><text x="2.004" y="1.67" class="g">website-evi</text></svg><svg x="1920"><use xlink:href="#a"/><use xlink:href="#b" x="13.996"/><text y="1.67" class="f">❯</text><text x="2.004" y="1.67" class="g">website-evid</text></svg><svg x="2000"><use xlink:href="#a"/><use xlink:href="#b" x="14.996"/><text y="1.67" class="f">❯</text><text x="2.004" y="1.67" class="g">website-evide</text></svg><svg x="2080"><use xlink:href="#a"/><use xlink:href="#b" x="15.996"/><text y="1.67" class="f">❯</text><text x="2.004" y="1.67" class="g">website-eviden</text></svg><svg x="2160"><use xlink:href="#a"/><use xlink:href="#b" x="16.996"/><text y="1.67" class="f">❯</text><text x="2.004" y="1.67" class="g">website-evidenc</text></svg><svg x="2240"><use xlink:href="#a"/><use xlink:href="#b" x="17.996"/><text y="1.67" class="f">❯</text><text x="2.004" y="1.67" class="g">website-evidence</text></svg><svg x="2320"><use xlink:href="#a"/><use xlink:href="#b" x="18.996"/><text y="1.67" class="f">❯</text><text x="2.004" y="1.67" class="g">website-evidence-</text></svg><svg x="2400"><use xlink:href="#a"/><use xlink:href="#b" x="19.996"/><text y="1.67" class="f">❯</text><text x="2.004" y="1.67" class="g">website-evidence-c</text></svg><svg x="2480"><use xlink:href="#a"/><use xlink:href="#b" x="20.996"/><text y="1.67" class="f">❯</text><text x="2.004" y="1.67" class="g">website-evidence-co</text></svg><svg x="2560"><use xlink:href="#a"/><use xlink:href="#b" x="21.996"/><text y="1.67" class="f">❯</text><text x="2.004" y="1.67" class="g">website-evidence-col</text></svg><svg x="2640"><use xlink:href="#a"/><use xlink:href="#b" x="22.996"/><text y="1.67" class="f">❯</text><text x="2.004" y="1.67" class="g">website-evidence-coll</text></svg><svg x="2720"><use xlink:href="#a"/><use xlink:href="#b" x="23.996"/><text y="1.67" class="f">❯</text><text x="2.004" y="1.67" class="g">website-evidence-colle</text></svg><svg x="2800"><use xlink:href="#a"/><use xlink:href="#b" x="24.996"/><text y="1.67" class="f">❯</text><text x="2.004" y="1.67" class="g">website-evidence-collec</text></svg><svg x="2880"><use xlink:href="#a"/><use xlink:href="#b" x="25.996"/><text y="1.67" class="f">❯</text><text x="2.004" y="1.67" class="g">website-evidence-collect</text></svg><svg x="2960"><use xlink:href="#a"/><use xlink:href="#b" x="26.996"/><text y="1.67" class="f">❯</text><text x="2.004" y="1.67" class="g">website-evidence-collecto</text></svg><svg x="3040"><use xlink:href="#a"/><use xlink:href="#b" x="27.996"/><use xlink:href="#2"/></svg><svg x="3120"><use xlink:href="#a"/><use xlink:href="#b" x="27.996"/><use xlink:href="#2"/></svg><svg x="3200"><use xlink:href="#a"/><use xlink:href="#b" x="27.996"/><use xlink:href="#2"/></svg><svg x="3280"><use xlink:href="#a"/><use xlink:href="#b" x="27.996"/><use xlink:href="#2"/></svg><svg x="3360"><use xlink:href="#a"/><use xlink:href="#b" x="27.996"/><use xlink:href="#2"/></svg><svg x="3440"><use xlink:href="#a"/><use xlink:href="#b" x="27.996"/><use xlink:href="#2"/></svg><svg x="3520"><use xlink:href="#a"/><use xlink:href="#b" x="27.996"/><use xlink:href="#2"/></svg><svg x="3600"><use xlink:href="#a"/><use xlink:href="#b" x="27.996"/><use xlink:href="#2"/></svg><svg x="3680"><use xlink:href="#a"/><use xlink:href="#b" x="27.996"/><use xlink:href="#2"/></svg><svg x="3760"><use xlink:href="#a"/><use xlink:href="#b" x="27.996"/><use xlink:href="#2"/></svg><svg x="3840"><use xlink:href="#a"/><use xlink:href="#b" x="27.996"/><use xlink:href="#2"/></svg><svg x="3920"><use xlink:href="#a"/><use xlink:href="#b" x="27.996"/><use xlink:href="#2"/></svg><svg x="4000"><use xlink:href="#a"/><use xlink:href="#b" x="27.996"/><use xlink:href="#2"/></svg><svg x="4080"><use xlink:href="#a"/><use xlink:href="#b" x="27.996"/><use xlink:href="#2"/></svg><svg x="4160"><use xlink:href="#a"/><use xlink:href="#b" x="27.996"/><use xlink:href="#2"/></svg><svg x="4240"><use xlink:href="#a"/><use xlink:href="#b" x="27.996"/><use xlink:href="#2"/></svg><svg x="4320"><use xlink:href="#a"/><use xlink:href="#b" x="28.996"/><use xlink:href="#2"/></svg><svg x="4400"><use xlink:href="#a"/><use xlink:href="#b" x="29.996"/><text y="1.67" class="f">❯</text><text x="2.004" y="1.67" class="g">website-evidence-collector</text><text x="29.058" y="1.67" class="g">s</text></svg><svg x="4480"><use xlink:href="#a"/><use xlink:href="#b" x="30.996"/><text y="1.67" class="f">❯</text><text x="2.004" y="1.67" class="g">website-evidence-collector</text><text x="29.058" y="1.67" class="g">se</text></svg><svg x="4560"><use xlink:href="#a"/><use xlink:href="#b" x="31.996"/><text y="1.67" class="f">❯</text><text x="2.004" y="1.67" class="g">website-evidence-collector</text><text x="29.058" y="1.67" class="g">ser</text></svg><svg x="4640"><use xlink:href="#a"/><use xlink:href="#b" x="32.996"/><text y="1.67" class="f">❯</text><text x="2.004" y="1.67" class="g">website-evidence-collector</text><text x="29.058" y="1.67" class="g">serv</text></svg><svg x="4720"><use xlink:href="#a"/><use xlink:href="#b" x="33.996"/><use xlink:href="#3"/></svg><svg x="4800"><use xlink:href="#a"/><use xlink:href="#b" x="33.996"/><use xlink:href="#3"/></svg><svg x="4880"><use xlink:href="#a"/><use xlink:href="#b" x="33.996"/><use xlink:href="#3"/></svg><svg x="4960"><use xlink:href="#a"/><use xlink:href="#b" x="33.996"/><use xlink:href="#3"/></svg><svg x="5040"><use xlink:href="#a"/><use xlink:href="#b" x="33.996"/><use xlink:href="#3"/></svg><svg x="5120"><use xlink:href="#a"/><use xlink:href="#b" x="-.004" y="2.146"/><use xlink:href="#3"/></svg><svg x="5200"><use xlink:href="#a"/><use xlink:href="#b" x="-.004" y="6.488"/><use xlink:href="#3"/><use xlink:href="#4" y="2.171"/><use xlink:href="#5" y="4.342"/></svg><svg x="5280"><use xlink:href="#a"/><use xlink:href="#b" x="-.004" y="10.83"/><use xlink:href="#3"/><use xlink:href="#4" y="2.171"/><use xlink:href="#5" y="4.342"/><use xlink:href="#6" y="6.513"/><use xlink:href="#7" y="8.684"/></svg><svg x="5360"><use xlink:href="#a"/><use xlink:href="#b" x="-.004" y="10.83"/><use xlink:href="#3"/><use xlink:href="#4" y="2.171"/><use xlink:href="#5" y="4.342"/><use xlink:href="#6" y="6.513"/><use xlink:href="#7" y="8.684"/></svg><svg x="5440"><use xlink:href="#a"/><use xlink:href="#b" x="-.004" y="10.83"/><use xlink:href="#3"/><use xlink:href="#4" y="2.171"/><use xlink:href="#5" y="4.342"/><use xlink:href="#6" y="6.513"/><use xlink:href="#7" y="8.684"/></svg><svg x="5520"><use xlink:href="#a"/><use xlink:href="#b" x="-.004" y="10.83"/><use xlink:href="#3"/><use xlink:href="#4" y="2.171"/><use xlink:href="#5" y="4.342"/><use xlink:href="#6" y="6.513"/><use xlink:href="#7" y="8.684"/></svg><svg x="5600"><use xlink:href="#a"/><use xlink:href="#b" x="-.004" y="10.83"/><use xlink:href="#3"/><use xlink:href="#4" y="2.171"/><use xlink:href="#5" y="4.342"/><use xlink:href="#6" y="6.513"/><use xlink:href="#7" y="8.684"/></svg><svg x="5680"><use xlink:href="#a"/><use xlink:href="#b" x="-.004" y="10.83"/><use xlink:href="#3"/><use xlink:href="#4" y="2.171"/><use xlink:href="#5" y="4.342"/><use xlink:href="#6" y="6.513"/><use xlink:href="#7" y="8.684"/></svg><svg x="5760"><use xlink:href="#a"/><use xlink:href="#b" x="-.004" y="10.83"/><use xlink:href="#3"/><use xlink:href="#4" y="2.171"/><use xlink:href="#5" y="4.342"/><use xlink:href="#6" y="6.513"/><use xlink:href="#7" y="8.684"/></svg></svg></g></g></svg></svg>