<svg xmlns="http://www.w3.org/2000/svg" xmlns:xlink="http://www.w3.org/1999/xlink" width="840" height="385.65"><rect width="840" height="385.65" rx="5" ry="5" class="a"/><svg y="0%" x="0%"><circle cx="20" cy="20" r="6" fill="#ff5f58"/><circle cx="40" cy="20" r="6" fill="#ffbd2e"/><circle cx="60" cy="20" r="6" fill="#18c132"/></svg><svg height="325.65" viewBox="0 0 80 32.565" width="800" x="15" xmlns="http://www.w3.org/2000/svg" xmlns:xlink="http://www.w3.org/1999/xlink" y="50"><style>@keyframes n{0%{transform:translateX(-80px)}8.5%{transform:translateX(-240px)}8.6%{transform:translateX(-480px)}8.7%{transform:translateX(-720px)}8.8%{transform:translateX(-960px)}8.9%{transform:translateX(-1280px)}9%{transform:translateX(-1520px)}9.1%{transform:translateX(-1760px)}9.2%{transform:translateX(-2080px)}9.3%{transform:translateX(-2320px)}9.4%{transform:translateX(-2640px)}9.5%{transform:translateX(-2880px)}9.6%{transform:translateX(-3200px)}9.7%{transform:translateX(-3440px)}9.8%{transform:translateX(-3760px)}9.9%{transform:translateX(-4000px)}10%{transform:translateX(-4320px)}10.1%{transform:translateX(-4560px)}10.2%{transform:translateX(-4880px)}10.3%{transform:translateX(-5200px)}10.4%{transform:translateX(-5440px)}10.5%{transform:translateX(-5760px)}10.6%{transform:translateX(-6160px)}10.7%{transform:translateX(-6640px)}10.8%{transform:translateX(-7120px)}10.9%{transform:translateX(-7600px)}11%{transform:translateX(-8080px)}11.1%{transform:translateX(-8480px)}11.2%{transform:translateX(-8800px)}11.3%{transform:translateX(-9040px)}11.4%{transform:translateX(-9360px)}11.5%{transform:translateX(-9680px)}11.6%{transform:translateX(-10080px)}11.7%{transform:translateX(-10320px)}20.2%{transform:translateX(-10400px)}25.8%{transform:translateX(-10560px)}31.8%{transform:translateX(-10720px)}35.4%{transform:translateX(-10880px)}38.3%{transform:translateX(-10960px)}46.7%{transform:translateX(-11040px)}51.3%{transform:translateX(-11280px)}51.4%{transform:translateX(-11600px)}51.8%{transform:translateX(-11680px)}57.6%{transform:translateX(-11760px)}66.1%{transform:translateX(-11840px)}74.5%{transform:translateX(-11920px)}83%{transform:translateX(-12000px)}91.5%{transform:translateX(-12080px)}to{transform:translateX(-12160px)}}.a{fill:#282d35}.f{fill:#a8cc8c;font-weight:700;white-space:pre}.g,.h,.i,.j{fill:#fff;white-space:pre}.h,.i,.j{fill:#ff8700}.i,.j{fill:#a8cc8c}.j{fill:#b9c0cb}</style><g font-family="Monaco,Consolas,Menlo,'Bitstream Vera Sans Mono','Powerline Symbols',monospace" font-size="1.67"><defs><symbol id="1"><text y="1.67" class="f">❯</text></symbol><symbol id="2"><text y="1.67" class="f">❯</text><text x="2.004" y="1.67" class="g">website-evidence-collector</text></symbol><symbol id="3"><text y="1.67" class="f">❯</text><text x="2.004" y="1.67" class="g">website-evidence-collector</text><text x="29.058" y="1.67" class="g">collect</text></symbol><symbol id="4"><text y="1.67" class="f">❯</text><text x="2.004" y="1.67" class="g">website-evidence-collector</text><text x="29.058" y="1.67" class="g">collect</text><text x="37.074" y="1.67" class="g">http://edps.europa.eu</text></symbol><symbol id="5"><text y="1.67" class="f">❯</text><text x="2.004" y="1.67" class="g">website-evidence-collector</text><text x="29.058" y="1.67" class="g">collect</text><text x="37.074" y="1.67" class="g">http://edps.europa.eu</text><text x="59.118" y="1.67" class="h">--</text></symbol><symbol id="6"><text y="1.67" class="f">❯</text><text x="2.004" y="1.67" class="g">website-evidence-collector</text><text x="29.058" y="1.67" class="g">collect</text><text x="37.074" y="1.67" class="g">http://edps.europa.eu</text><text x="59.118" y="1.67" class="h">--no-output</text></symbol><symbol id="7"><text y="1.67" class="i">info</text><text x="4.008" y="1.67" class="j">:</text><text x="6.012" y="1.67" class="j">No</text><text x="9.018" y="1.67" class="j">proxy</text><text x="15.03" y="1.67" class="j">configuration</text><text x="29.058" y="1.67" class="j">found.</text><text x="36.072" y="1.67" class="j">{&quot;timestamp&quot;:&quot;2024-11-27T12:11:34.537Z&quot;}</text></symbol><symbol id="8"><text y="1.67" class="i">info</text><text x="4.008" y="1.67" class="j">:</text><text x="6.012" y="1.67" class="j">Chromium</text><text x="15.03" y="1.67" class="j">called</text><text x="23.046" y="1.67" class="j">with</text><text x="28.056" y="1.67" class="j">following</text><text x="38.076" y="1.67" class="j">options:</text><text x="48.096" y="1.67" class="j">{&quot;timestamp&quot;:&quot;2024-11-27T12:11:3</text></symbol><symbol id="9"><text y="1.67" class="j">4.540Z&quot;}</text></symbol><symbol id="10"><text y="1.67" class="i">info</text><text x="4.008" y="1.67" class="j">:</text><text x="6.012" y="1.67" class="j">Done:</text><text x="12.024" y="1.67" class="j">Creating</text><text x="21.042" y="1.67" class="j">puppeteer</text><text x="31.062" y="1.67" class="j">chrome</text><text x="38.076" y="1.67" class="j">session</text><text x="46.092" y="1.67" class="j">{&quot;timestamp&quot;:&quot;2024-11-27T12:11:35.</text></symbol><symbol id="11"><text y="1.67" class="j">240Z&quot;}</text></symbol><symbol id="12"><text y="1.67" class="i">info</text><text x="4.008" y="1.67" class="j">:</text><text x="6.012" y="1.67" class="j">Run</text><text x="10.02" y="1.67" class="j">testHttps</text><text x="20.04" y="1.67" class="j">{&quot;timestamp&quot;:&quot;2024-11-27T12:11:35.241Z&quot;}</text></symbol><symbol id="13"><text y="1.67" class="i">info</text><text x="4.008" y="1.67" class="j">:</text><text x="6.012" y="1.67" class="j">Done:</text><text x="12.024" y="1.67" class="j">Testing</text><text x="20.04" y="1.67" class="j">connection</text><text x="31.062" y="1.67" class="j">using</text><text x="37.074" y="1.67" class="j">testHttps</text><text x="47.094" y="1.67" class="j">and</text><text x="51.102" y="1.67" class="j">testSSL</text><text x="59.118" y="1.67" class="j">{&quot;timestamp&quot;:&quot;2024-11</text></symbol><symbol id="14"><text y="1.67" class="j">-27T12:11:35.667Z&quot;}</text></symbol><symbol id="15"><text y="1.67" class="i">info</text><text x="4.008" y="1.67" class="j">:</text><text x="6.012" y="1.67" class="j">browsing</text><text x="15.03" y="1.67" class="j">now</text><text x="19.038" y="1.67" class="j">to</text><text x="22.044" y="1.67" class="j">http://edps.europa.eu</text><text x="44.088" y="1.67" class="j">{&quot;timestamp&quot;:&quot;2024-11-27T12:11:35.66</text></symbol><symbol id="16"><text y="1.67" class="j">8Z&quot;,&quot;type&quot;:&quot;Browser&quot;}</text></symbol><symbol id="17"><text y="1.67" style="white-space:pre" fill="#71bef2">debug</text><text x="5.01" y="1.67" class="j">:</text><text x="7.014" y="1.67" class="j">Potential</text><text x="17.034" y="1.67" class="j">Tracking</text><text x="26.052" y="1.67" class="j">Beacon</text><text x="33.066" y="1.67" class="j">captured</text><text x="42.084" y="1.67" class="j">via</text><text x="46.092" y="1.67" class="j">fanboy-annoyance.txt</text><text x="67.134" y="1.67" class="j">for</text><text x="71.142" y="1.67" class="j">query</text><text x="77.154" y="1.67" class="j">v=1</text></symbol><symbol id="18"><text y="1.67" class="j">.x</text><text x="3.006" y="1.67" class="j">with</text><text x="8.016" y="1.67" class="j">endpoint</text><text x="17.034" y="1.67" class="j">https://www.edps.europa.eu/modules/custom/edps_cookies/js/cooki</text></symbol><symbol id="19"><text y="1.67" class="j">es-popup.js.</text><text x="13.026" y="1.67" class="j">{&quot;timestamp&quot;:&quot;2024-11-27T12:11:36.004Z&quot;}</text></symbol><symbol id="20"><text y="1.67" class="i">info</text><text x="4.008" y="1.67" class="j">:</text><text x="6.012" y="1.67" class="j">Done:</text><text x="12.024" y="1.67" class="j">Loading</text><text x="20.04" y="1.67" class="j">page</text><text x="25.05" y="1.67" class="j">{&quot;timestamp&quot;:&quot;2024-11-27T12:11:40.191Z&quot;}</text></symbol><symbol id="21"><text y="1.67" class="i">info</text><text x="4.008" y="1.67" class="j">:</text><text x="6.012" y="1.67" class="j">Done:</text><text x="12.024" y="1.67" class="j">Collecting</text><text x="23.046" y="1.67" class="j">screenshots</text><text x="35.07" y="1.67" class="j">{&quot;timestamp&quot;:&quot;2024-11-27T12:11:40.725Z&quot;}</text></symbol><symbol id="22"><text y="1.67" class="i">info</text><text x="4.008" y="1.67" class="j">:</text><text x="6.012" y="1.67" class="j">Done:</text><text x="12.024" y="1.67" class="j">Collecting</text><text x="23.046" y="1.67" class="j">links</text><text x="29.058" y="1.67" class="j">{&quot;timestamp&quot;:&quot;2024-11-27T12:11:40.732Z&quot;}</text></symbol><symbol id="23"><text y="1.67" class="i">info</text><text x="4.008" y="1.67" class="j">:</text><text x="6.012" y="1.67" class="j">Done:</text><text x="12.024" y="1.67" class="j">Collecting</text><text x="23.046" y="1.67" class="j">forms</text><text x="29.058" y="1.67" class="j">{&quot;timestamp&quot;:&quot;2024-11-27T12:11:40.734Z&quot;}</text></symbol><symbol id="24"><text y="1.67" class="i">info</text><text x="4.008" y="1.67" class="j">:</text><text x="6.012" y="1.67" class="j">Done:</text><text x="12.024" y="1.67" class="j">Collecting</text><text x="23.046" y="1.67" class="j">cookies</text><text x="31.062" y="1.67" class="j">{&quot;timestamp&quot;:&quot;2024-11-27T12:11:40.734Z&quot;}</text></symbol><symbol id="25"><text y="1.67" class="i">info</text><text x="4.008" y="1.67" class="j">:</text><text x="6.012" y="1.67" class="j">Done:</text><text x="12.024" y="1.67" class="j">Collecting</text><text x="23.046" y="1.67" class="j">local</text><text x="29.058" y="1.67" class="j">storage</text><text x="37.074" y="1.67" class="j">{&quot;timestamp&quot;:&quot;2024-11-27T12:11:40.735Z&quot;}</text></symbol><symbol id="26"><text y="1.67" class="i">info</text><text x="4.008" y="1.67" class="j">:</text><text x="6.012" y="1.67" class="j">Done:</text><text x="12.024" y="1.67" class="j">Collecting</text><text x="23.046" y="1.67" class="j">websocket</text><text x="33.066" y="1.67" class="j">log</text><text x="37.074" y="1.67" class="j">{&quot;timestamp&quot;:&quot;2024-11-27T12:11:40.736Z&quot;}</text></symbol><symbol id="27"><text y="1.67" class="i">info</text><text x="4.008" y="1.67" class="j">:</text><text x="6.012" y="1.67" class="j">Done:</text><text x="12.024" y="1.67" class="j">Browsing</text><text x="21.042" y="1.67" class="j">samples</text><text x="29.058" y="1.67" class="j">{&quot;timestamp&quot;:&quot;2024-11-27T12:11:40.736Z&quot;}</text></symbol><symbol id="28"><text y="1.67" class="i">info</text><text x="4.008" y="1.67" class="j">:</text><text x="6.012" y="1.67" class="j">Done:</text><text x="12.024" y="1.67" class="j">Ending</text><text x="19.038" y="1.67" class="j">session</text><text x="27.054" y="1.67" class="j">{&quot;timestamp&quot;:&quot;2024-11-27T12:11:40.787Z&quot;}</text></symbol><symbol id="a"><path fill="transparent" d="M0 0h80v16H0z"/></symbol><symbol id="b"><path fill="#6f7683" d="M0 0h1.102v2.171H0z"/></symbol></defs><path class="a" d="M0 0h80v32.565H0z"/><g style="animation-duration:11.785854s;animation-iteration-count:infinite;animation-name:n;animation-timing-function:steps(1,end)"><svg width="12240"><svg><use xlink:href="#a"/><use xlink:href="#b" x="-.004"/></svg><svg x="80"><use xlink:href="#a"/><use xlink:href="#b" x="1.996"/><use xlink:href="#1"/></svg><svg x="160"><use xlink:href="#a"/><use xlink:href="#b" x="1.996"/><use xlink:href="#1"/></svg><svg x="240"><use xlink:href="#a"/><use xlink:href="#b" x="1.996"/><use xlink:href="#1"/></svg><svg x="320"><use xlink:href="#a"/><use xlink:href="#b" x="1.996"/><use xlink:href="#1"/></svg><svg x="400"><use xlink:href="#a"/><use xlink:href="#b" x="1.996"/><use xlink:href="#1"/></svg><svg x="480"><use xlink:href="#a"/><use xlink:href="#b" x="1.996"/><use xlink:href="#1"/></svg><svg x="560"><use xlink:href="#a"/><use xlink:href="#b" x="1.996"/><use xlink:href="#1"/></svg><svg x="640"><use xlink:href="#a"/><use xlink:href="#b" x="1.996"/><use xlink:href="#1"/></svg><svg x="720"><use xlink:href="#a"/><use xlink:href="#b" x="1.996"/><use xlink:href="#1"/></svg><svg x="800"><use xlink:href="#a"/><use xlink:href="#b" x="1.996"/><use xlink:href="#1"/></svg><svg x="880"><use xlink:href="#a"/><use xlink:href="#b" x="1.996"/><use xlink:href="#1"/></svg><svg x="960"><use xlink:href="#a"/><use xlink:href="#b" x="1.996"/><use xlink:href="#1"/></svg><svg x="1040"><use xlink:href="#a"/><use xlink:href="#b" x="2.996"/><text y="1.67" class="f">❯</text><text x="2.004" y="1.67" class="g">w</text></svg><svg x="1120"><use xlink:href="#a"/><use xlink:href="#b" x="3.996"/><text y="1.67" class="f">❯</text><text x="2.004" y="1.67" class="g">we</text></svg><svg x="1200"><use xlink:href="#a"/><use xlink:href="#b" x="4.996"/><text y="1.67" class="f">❯</text><text x="2.004" y="1.67" class="g">web</text></svg><svg x="1280"><use xlink:href="#a"/><use xlink:href="#b" x="5.996"/><text y="1.67" class="f">❯</text><text x="2.004" y="1.67" class="g">webs</text></svg><svg x="1360"><use xlink:href="#a"/><use xlink:href="#b" x="6.996"/><text y="1.67" class="f">❯</text><text x="2.004" y="1.67" class="g">websi</text></svg><svg x="1440"><use xlink:href="#a"/><use xlink:href="#b" x="7.996"/><text y="1.67" class="f">❯</text><text x="2.004" y="1.67" class="g">websit</text></svg><svg x="1520"><use xlink:href="#a"/><use xlink:href="#b" x="8.996"/><text y="1.67" class="f">❯</text><text x="2.004" y="1.67" class="g">website</text></svg><svg x="1600"><use xlink:href="#a"/><use xlink:href="#b" x="9.996"/><text y="1.67" class="f">❯</text><text x="2.004" y="1.67" class="g">website-</text></svg><svg x="1680"><use xlink:href="#a"/><use xlink:href="#b" x="10.996"/><text y="1.67" class="f">❯</text><text x="2.004" y="1.67" class="g">website-e</text></svg><svg x="1760"><use xlink:href="#a"/><use xlink:href="#b" x="11.996"/><text y="1.67" class="f">❯</text><text x="2.004" y="1.67" class="g">website-ev</text></svg><svg x="1840"><use xlink:href="#a"/><use xlink:href="#b" x="12.996"/><text y="1.67" class="f">❯</text><text x="2.004" y="1.67" class="g">website-evi</text></svg><svg x="1920"><use xlink:href="#a"/><use xlink:href="#b" x="13.996"/><text y="1.67" class="f">❯</text><text x="2.004" y="1.67" class="g">website-evid</text></svg><svg x="2000"><use xlink:href="#a"/><use xlink:href="#b" x="14.996"/><text y="1.67" class="f">❯</text><text x="2.004" y="1.67" class="g">website-evide</text></svg><svg x="2080"><use xlink:href="#a"/><use xlink:href="#b" x="15.996"/><text y="1.67" class="f">❯</text><text x="2.004" y="1.67" class="g">website-eviden</text></svg><svg x="2160"><use xlink:href="#a"/><use xlink:href="#b" x="16.996"/><text y="1.67" class="f">❯</text><text x="2.004" y="1.67" class="g">website-evidenc</text></svg><svg x="2240"><use xlink:href="#a"/><use xlink:href="#b" x="17.996"/><text y="1.67" class="f">❯</text><text x="2.004" y="1.67" class="g">website-evidence</text></svg><svg x="2320"><use xlink:href="#a"/><use xlink:href="#b" x="18.996"/><text y="1.67" class="f">❯</text><text x="2.004" y="1.67" class="g">website-evidence-</text></svg><svg x="2400"><use xlink:href="#a"/><use xlink:href="#b" x="19.996"/><text y="1.67" class="f">❯</text><text x="2.004" y="1.67" class="g">website-evidence-c</text></svg><svg x="2480"><use xlink:href="#a"/><use xlink:href="#b" x="20.996"/><text y="1.67" class="f">❯</text><text x="2.004" y="1.67" class="g">website-evidence-co</text></svg><svg x="2560"><use xlink:href="#a"/><use xlink:href="#b" x="21.996"/><text y="1.67" class="f">❯</text><text x="2.004" y="1.67" class="g">website-evidence-col</text></svg><svg x="2640"><use xlink:href="#a"/><use xlink:href="#b" x="22.996"/><text y="1.67" class="f">❯</text><text x="2.004" y="1.67" class="g">website-evidence-coll</text></svg><svg x="2720"><use xlink:href="#a"/><use xlink:href="#b" x="23.996"/><text y="1.67" class="f">❯</text><text x="2.004" y="1.67" class="g">website-evidence-colle</text></svg><svg x="2800"><use xlink:href="#a"/><use xlink:href="#b" x="24.996"/><text y="1.67" class="f">❯</text><text x="2.004" y="1.67" class="g">website-evidence-collec</text></svg><svg x="2880"><use xlink:href="#a"/><use xlink:href="#b" x="25.996"/><text y="1.67" class="f">❯</text><text x="2.004" y="1.67" class="g">website-evidence-collect</text></svg><svg x="2960"><use xlink:href="#a"/><use xlink:href="#b" x="26.996"/><text y="1.67" class="f">❯</text><text x="2.004" y="1.67" class="g">website-evidence-collecto</text></svg><svg x="3040"><use xlink:href="#a"/><use xlink:href="#b" x="27.996"/><use xlink:href="#2"/></svg><svg x="3120"><use xlink:href="#a"/><use xlink:href="#b" x="27.996"/><use xlink:href="#2"/></svg><svg x="3200"><use xlink:href="#a"/><use xlink:href="#b" x="27.996"/><use xlink:href="#2"/></svg><svg x="3280"><use xlink:href="#a"/><use xlink:href="#b" x="27.996"/><use xlink:href="#2"/></svg><svg x="3360"><use xlink:href="#a"/><use xlink:href="#b" x="27.996"/><use xlink:href="#2"/></svg><svg x="3440"><use xlink:href="#a"/><use xlink:href="#b" x="27.996"/><use xlink:href="#2"/></svg><svg x="3520"><use xlink:href="#a"/><use xlink:href="#b" x="27.996"/><use xlink:href="#2"/></svg><svg x="3600"><use xlink:href="#a"/><use xlink:href="#b" x="27.996"/><use xlink:href="#2"/></svg><svg x="3680"><use xlink:href="#a"/><use xlink:href="#b" x="27.996"/><use xlink:href="#2"/></svg><svg x="3760"><use xlink:href="#a"/><use xlink:href="#b" x="27.996"/><use xlink:href="#2"/></svg><svg x="3840"><use xlink:href="#a"/><use xlink:href="#b" x="27.996"/><use xlink:href="#2"/></svg><svg x="3920"><use xlink:href="#a"/><use xlink:href="#b" x="27.996"/><use xlink:href="#2"/></svg><svg x="4000"><use xlink:href="#a"/><use xlink:href="#b" x="27.996"/><use xlink:href="#2"/></svg><svg x="4080"><use xlink:href="#a"/><use xlink:href="#b" x="27.996"/><use xlink:href="#2"/></svg><svg x="4160"><use xlink:href="#a"/><use xlink:href="#b" x="27.996"/><use xlink:href="#2"/></svg><svg x="4240"><use xlink:href="#a"/><use xlink:href="#b" x="27.996"/><use xlink:href="#2"/></svg><svg x="4320"><use xlink:href="#a"/><use xlink:href="#b" x="28.996"/><use xlink:href="#2"/></svg><svg x="4400"><use xlink:href="#a"/><use xlink:href="#b" x="29.996"/><text y="1.67" class="f">❯</text><text x="2.004" y="1.67" class="g">website-evidence-collector</text><text x="29.058" y="1.67" class="g">c</text></svg><svg x="4480"><use xlink:href="#a"/><use xlink:href="#b" x="30.996"/><text y="1.67" class="f">❯</text><text x="2.004" y="1.67" class="g">website-evidence-collector</text><text x="29.058" y="1.67" class="g">co</text></svg><svg x="4560"><use xlink:href="#a"/><use xlink:href="#b" x="31.996"/><text y="1.67" class="f">❯</text><text x="2.004" y="1.67" class="g">website-evidence-collector</text><text x="29.058" y="1.67" class="g">col</text></svg><svg x="4640"><use xlink:href="#a"/><use xlink:href="#b" x="32.996"/><text y="1.67" class="f">❯</text><text x="2.004" y="1.67" class="g">website-evidence-collector</text><text x="29.058" y="1.67" class="g">coll</text></svg><svg x="4720"><use xlink:href="#a"/><use xlink:href="#b" x="33.996"/><text y="1.67" class="f">❯</text><text x="2.004" y="1.67" class="g">website-evidence-collector</text><text x="29.058" y="1.67" class="g">colle</text></svg><svg x="4800"><use xlink:href="#a"/><use xlink:href="#b" x="34.996"/><text y="1.67" class="f">❯</text><text x="2.004" y="1.67" class="g">website-evidence-collector</text><text x="29.058" y="1.67" class="g">collec</text></svg><svg x="4880"><use xlink:href="#a"/><use xlink:href="#b" x="35.996"/><use xlink:href="#3"/></svg><svg x="4960"><use xlink:href="#a"/><use xlink:href="#b" x="36.996"/><use xlink:href="#3"/></svg><svg x="5040"><use xlink:href="#a"/><use xlink:href="#b" x="37.996"/><text y="1.67" class="f">❯</text><text x="2.004" y="1.67" class="g">website-evidence-collector</text><text x="29.058" y="1.67" class="g">collect</text><text x="37.074" y="1.67" class="g">h</text></svg><svg x="5120"><use xlink:href="#a"/><use xlink:href="#b" x="38.996"/><text y="1.67" class="f">❯</text><text x="2.004" y="1.67" class="g">website-evidence-collector</text><text x="29.058" y="1.67" class="g">collect</text><text x="37.074" y="1.67" class="g">ht</text></svg><svg x="5200"><use xlink:href="#a"/><use xlink:href="#b" x="39.996"/><text y="1.67" class="f">❯</text><text x="2.004" y="1.67" class="g">website-evidence-collector</text><text x="29.058" y="1.67" class="g">collect</text><text x="37.074" y="1.67" class="g">htt</text></svg><svg x="5280"><use xlink:href="#a"/><use xlink:href="#b" x="40.996"/><text y="1.67" class="f">❯</text><text x="2.004" y="1.67" class="g">website-evidence-collector</text><text x="29.058" y="1.67" class="g">collect</text><text x="37.074" y="1.67" class="g">http</text></svg><svg x="5360"><use xlink:href="#a"/><use xlink:href="#b" x="41.996"/><text y="1.67" class="f">❯</text><text x="2.004" y="1.67" class="g">website-evidence-collector</text><text x="29.058" y="1.67" class="g">collect</text><text x="37.074" y="1.67" class="g">http:</text></svg><svg x="5440"><use xlink:href="#a"/><use xlink:href="#b" x="42.996"/><text y="1.67" class="f">❯</text><text x="2.004" y="1.67" class="g">website-evidence-collector</text><text x="29.058" y="1.67" class="g">collect</text><text x="37.074" y="1.67" class="g">http:/</text></svg><svg x="5520"><use xlink:href="#a"/><use xlink:href="#b" x="43.996"/><text y="1.67" class="f">❯</text><text x="2.004" y="1.67" class="g">website-evidence-collector</text><text x="29.058" y="1.67" class="g">collect</text><text x="37.074" y="1.67" class="g">http://</text></svg><svg x="5600"><use xlink:href="#a"/><use xlink:href="#b" x="44.996"/><text y="1.67" class="f">❯</text><text x="2.004" y="1.67" class="g">website-evidence-collector</text><text x="29.058" y="1.67" class="g">collect</text><text x="37.074" y="1.67" class="g">http://e</text></svg><svg x="5680"><use xlink:href="#a"/><use xlink:href="#b" x="45.996"/><text y="1.67" class="f">❯</text><text x="2.004" y="1.67" class="g">website-evidence-collector</text><text x="29.058" y="1.67" class="g">collect</text><text x="37.074" y="1.67" class="g">http://ed</text></svg><svg x="5760"><use xlink:href="#a"/><use xlink:href="#b" x="46.996"/><text y="1.67" class="f">❯</text><text x="2.004" y="1.67" class="g">website-evidence-collector</text><text x="29.058" y="1.67" class="g">collect</text><text x="37.074" y="1.67" class="g">http://edp</text></svg><svg x="5840"><use xlink:href="#a"/><use xlink:href="#b" x="47.996"/><text y="1.67" class="f">❯</text><text x="2.004" y="1.67" class="g">website-evidence-collector</text><text x="29.058" y="1.67" class="g">collect</text><text x="37.074" y="1.67" class="g">http://edps</text></svg><svg x="5920"><use xlink:href="#a"/><use xlink:href="#b" x="48.996"/><text y="1.67" class="f">❯</text><text x="2.004" y="1.67" class="g">website-evidence-collector</text><text x="29.058" y="1.67" class="g">collect</text><text x="37.074" y="1.67" class="g">http://edps.</text></svg><svg x="6000"><use xlink:href="#a"/><use xlink:href="#b" x="49.996"/><text y="1.67" class="f">❯</text><text x="2.004" y="1.67" class="g">website-evidence-collector</text><text x="29.058" y="1.67" class="g">collect</text><text x="37.074" y="1.67" class="g">http://edps.e</text></svg><svg x="6080"><use xlink:href="#a"/><use xlink:href="#b" x="50.996"/><text y="1.67" class="f">❯</text><text x="2.004" y="1.67" class="g">website-evidence-collector</text><text x="29.058" y="1.67" class="g">collect</text><text x="37.074" y="1.67" class="g">http://edps.eu</text></svg><svg x="6160"><use xlink:href="#a"/><use xlink:href="#b" x="51.996"/><text y="1.67" class="f">❯</text><text x="2.004" y="1.67" class="g">website-evidence-collector</text><text x="29.058" y="1.67" class="g">collect</text><text x="37.074" y="1.67" class="g">http://edps.eur</text></svg><svg x="6240"><use xlink:href="#a"/><use xlink:href="#b" x="52.996"/><text y="1.67" class="f">❯</text><text x="2.004" y="1.67" class="g">website-evidence-collector</text><text x="29.058" y="1.67" class="g">collect</text><text x="37.074" y="1.67" class="g">http://edps.euro</text></svg><svg x="6320"><use xlink:href="#a"/><use xlink:href="#b" x="53.996"/><text y="1.67" class="f">❯</text><text x="2.004" y="1.67" class="g">website-evidence-collector</text><text x="29.058" y="1.67" class="g">collect</text><text x="37.074" y="1.67" class="g">http://edps.europ</text></svg><svg x="6400"><use xlink:href="#a"/><use xlink:href="#b" x="54.996"/><text y="1.67" class="f">❯</text><text x="2.004" y="1.67" class="g">website-evidence-collector</text><text x="29.058" y="1.67" class="g">collect</text><text x="37.074" y="1.67" class="g">http://edps.europa</text></svg><svg x="6480"><use xlink:href="#a"/><use xlink:href="#b" x="55.996"/><text y="1.67" class="f">❯</text><text x="2.004" y="1.67" class="g">website-evidence-collector</text><text x="29.058" y="1.67" class="g">collect</text><text x="37.074" y="1.67" class="g">http://edps.europa.</text></svg><svg x="6560"><use xlink:href="#a"/><use xlink:href="#b" x="56.996"/><text y="1.67" class="f">❯</text><text x="2.004" y="1.67" class="g">website-evidence-collector</text><text x="29.058" y="1.67" class="g">collect</text><text x="37.074" y="1.67" class="g">http://edps.europa.e</text></svg><svg x="6640"><use xlink:href="#a"/><use xlink:href="#b" x="57.996"/><use xlink:href="#4"/></svg><svg x="6720"><use xlink:href="#a"/><use xlink:href="#b" x="57.996"/><use xlink:href="#4"/></svg><svg x="6800"><use xlink:href="#a"/><use xlink:href="#b" x="57.996"/><use xlink:href="#4"/></svg><svg x="6880"><use xlink:href="#a"/><use xlink:href="#b" x="57.996"/><use xlink:href="#4"/></svg><svg x="6960"><use xlink:href="#a"/><use xlink:href="#b" x="57.996"/><use xlink:href="#4"/></svg><svg x="7040"><use xlink:href="#a"/><use xlink:href="#b" x="57.996"/><use xlink:href="#4"/></svg><svg x="7120"><use xlink:href="#a"/><use xlink:href="#b" x="57.996"/><use xlink:href="#4"/></svg><svg x="7200"><use xlink:href="#a"/><use xlink:href="#b" x="57.996"/><use xlink:href="#4"/></svg><svg x="7280"><use xlink:href="#a"/><use xlink:href="#b" x="57.996"/><use xlink:href="#4"/></svg><svg x="7360"><use xlink:href="#a"/><use xlink:href="#b" x="57.996"/><use xlink:href="#4"/></svg><svg x="7440"><use xlink:href="#a"/><use xlink:href="#b" x="57.996"/><use xlink:href="#4"/></svg><svg x="7520"><use xlink:href="#a"/><use xlink:href="#b" x="57.996"/><use xlink:href="#4"/></svg><svg x="7600"><use xlink:href="#a"/><use xlink:href="#b" x="57.996"/><use xlink:href="#4"/></svg><svg x="7680"><use xlink:href="#a"/><use xlink:href="#b" x="57.996"/><use xlink:href="#4"/></svg><svg x="7760"><use xlink:href="#a"/><use xlink:href="#b" x="57.996"/><use xlink:href="#4"/></svg><svg x="7840"><use xlink:href="#a"/><use xlink:href="#b" x="57.996"/><use xlink:href="#4"/></svg><svg x="7920"><use xlink:href="#a"/><use xlink:href="#b" x="58.996"/><use xlink:href="#4"/></svg><svg x="8000"><use xlink:href="#a"/><use xlink:href="#b" x="59.996"/><text y="1.67" class="f">❯</text><text x="2.004" y="1.67" class="g">website-evidence-collector</text><text x="29.058" y="1.67" class="g">collect</text><text x="37.074" y="1.67" class="g">http://edps.europa.eu</text><text x="59.118" y="1.67" class="h">-</text></svg><svg x="8080"><use xlink:href="#a"/><use xlink:href="#b" x="60.996"/><use xlink:href="#5"/></svg><svg x="8160"><use xlink:href="#a"/><use xlink:href="#b" x="60.996"/><use xlink:href="#5"/></svg><svg x="8240"><use xlink:href="#a"/><use xlink:href="#b" x="60.996"/><use xlink:href="#5"/></svg><svg x="8320"><use xlink:href="#a"/><use xlink:href="#b" x="60.996"/><use xlink:href="#5"/></svg><svg x="8400"><use xlink:href="#a"/><use xlink:href="#b" x="60.996"/><use xlink:href="#5"/></svg><svg x="8480"><use xlink:href="#a"/><use xlink:href="#b" x="60.996"/><use xlink:href="#5"/></svg><svg x="8560"><use xlink:href="#a"/><use xlink:href="#b" x="60.996"/><use xlink:href="#5"/></svg><svg x="8640"><use xlink:href="#a"/><use xlink:href="#b" x="60.996"/><use xlink:href="#5"/></svg><svg x="8720"><use xlink:href="#a"/><use xlink:href="#b" x="60.996"/><use xlink:href="#5"/></svg><svg x="8800"><use xlink:href="#a"/><use xlink:href="#b" x="60.996"/><use xlink:href="#5"/></svg><svg x="8880"><use xlink:href="#a"/><use xlink:href="#b" x="60.996"/><use xlink:href="#5"/></svg><svg x="8960"><use xlink:href="#a"/><use xlink:href="#b" x="60.996"/><use xlink:href="#5"/></svg><svg x="9040"><use xlink:href="#a"/><use xlink:href="#b" x="60.996"/><use xlink:href="#5"/></svg><svg x="9120"><use xlink:href="#a"/><use xlink:href="#b" x="60.996"/><use xlink:href="#5"/></svg><svg x="9200"><use xlink:href="#a"/><use xlink:href="#b" x="60.996"/><use xlink:href="#5"/></svg><svg x="9280"><use xlink:href="#a"/><use xlink:href="#b" x="60.996"/><use xlink:href="#5"/></svg><svg x="9360"><use xlink:href="#a"/><use xlink:href="#b" x="61.996"/><text y="1.67" class="f">❯</text><text x="2.004" y="1.67" class="g">website-evidence-collector</text><text x="29.058" y="1.67" class="g">collect</text><text x="37.074" y="1.67" class="g">http://edps.europa.eu</text><text x="59.118" y="1.67" class="h">--n</text></svg><svg x="9440"><use xlink:href="#a"/><use xlink:href="#b" x="62.996"/><text y="1.67" class="f">❯</text><text x="2.004" y="1.67" class="g">website-evidence-collector</text><text x="29.058" y="1.67" class="g">collect</text><text x="37.074" y="1.67" class="g">http://edps.europa.eu</text><text x="59.118" y="1.67" class="h">--no</text></svg><svg x="9520"><use xlink:href="#a"/><use xlink:href="#b" x="63.996"/><text y="1.67" class="f">❯</text><text x="2.004" y="1.67" class="g">website-evidence-collector</text><text x="29.058" y="1.67" class="g">collect</text><text x="37.074" y="1.67" class="g">http://edps.europa.eu</text><text x="59.118" y="1.67" class="h">--no-</text></svg><svg x="9600"><use xlink:href="#a"/><use xlink:href="#b" x="64.996"/><text y="1.67" class="f">❯</text><text x="2.004" y="1.67" class="g">website-evidence-collector</text><text x="29.058" y="1.67" class="g">collect</text><text x="37.074" y="1.67" class="g">http://edps.europa.eu</text><text x="59.118" y="1.67" class="h">--no-o</text></svg><svg x="9680"><use xlink:href="#a"/><use xlink:href="#b" x="65.996"/><text y="1.67" class="f">❯</text><text x="2.004" y="1.67" class="g">website-evidence-collector</text><text x="29.058" y="1.67" class="g">collect</text><text x="37.074" y="1.67" class="g">http://edps.europa.eu</text><text x="59.118" y="1.67" class="h">--no-ou</text></svg><svg x="9760"><use xlink:href="#a"/><use xlink:href="#b" x="66.996"/><text y="1.67" class="f">❯</text><text x="2.004" y="1.67" class="g">website-evidence-collector</text><text x="29.058" y="1.67" class="g">collect</text><text x="37.074" y="1.67" class="g">http://edps.europa.eu</text><text x="59.118" y="1.67" class="h">--no-out</text></svg><svg x="9840"><use xlink:href="#a"/><use xlink:href="#b" x="67.996"/><text y="1.67" class="f">❯</text><text x="2.004" y="1.67" class="g">website-evidence-collector</text><text x="29.058" y="1.67" class="g">collect</text><text x="37.074" y="1.67" class="g">http://edps.europa.eu</text><text x="59.118" y="1.67" class="h">--no-outp</text></svg><svg x="9920"><use xlink:href="#a"/><use xlink:href="#b" x="68.996"/><text y="1.67" class="f">❯</text><text x="2.004" y="1.67" class="g">website-evidence-collector</text><text x="29.058" y="1.67" class="g">collect</text><text x="37.074" y="1.67" class="g">http://edps.europa.eu</text><text x="59.118" y="1.67" class="h">--no-outpu</text></svg><svg x="10000"><use xlink:href="#a"/><use xlink:href="#b" x="69.996"/><use xlink:href="#6"/></svg><svg x="10080"><use xlink:href="#a"/><use xlink:href="#b" x="69.996"/><use xlink:href="#6"/></svg><svg x="10160"><use xlink:href="#a"/><use xlink:href="#b" x="69.996"/><use xlink:href="#6"/></svg><svg x="10240"><use xlink:href="#a"/><use xlink:href="#b" x="69.996"/><use xlink:href="#6"/></svg><svg x="10320"><use xlink:href="#a"/><use xlink:href="#b" x="69.996"/><use xlink:href="#6"/></svg><svg x="10400"><use xlink:href="#a"/><use xlink:href="#b" x="-.004" y="2.146"/><use xlink:href="#6"/></svg><svg x="10480"><use xlink:href="#a"/><use xlink:href="#b" x="-.004" y="4.317"/><use xlink:href="#6"/><use xlink:href="#7" y="2.171"/></svg><svg x="10560"><use xlink:href="#a"/><use xlink:href="#b" x="-.004" y="8.659"/><use xlink:href="#6"/><use xlink:href="#7" y="2.171"/><use xlink:href="#8" y="4.342"/><use xlink:href="#9" y="6.513"/></svg><svg x="10640"><use xlink:href="#a"/><use xlink:href="#b" x="-.004" y="13.001"/><use xlink:href="#6"/><use xlink:href="#7" y="2.171"/><use xlink:href="#8" y="4.342"/><use xlink:href="#9" y="6.513"/><use xlink:href="#10" y="8.684"/><use xlink:href="#11" y="10.855"/></svg><svg x="10720"><use xlink:href="#a"/><use xlink:href="#b" x="-.004" y="15.172"/><use xlink:href="#6"/><use xlink:href="#7" y="2.171"/><use xlink:href="#8" y="4.342"/><use xlink:href="#9" y="6.513"/><use xlink:href="#10" y="8.684"/><use xlink:href="#11" y="10.855"/><use xlink:href="#12" y="13.026"/></svg><svg x="10800"><use xlink:href="#a"/><use xlink:href="#b" x="-.004" y="19.514"/><use xlink:href="#6"/><use xlink:href="#7" y="2.171"/><use xlink:href="#8" y="4.342"/><use xlink:href="#9" y="6.513"/><use xlink:href="#10" y="8.684"/><use xlink:href="#11" y="10.855"/><use xlink:href="#12" y="13.026"/><use xlink:href="#13" y="15.197"/><use xlink:href="#14" y="17.368"/></svg><svg x="10880"><use xlink:href="#a"/><use xlink:href="#b" x="-.004" y="23.856"/><use xlink:href="#6"/><use xlink:href="#7" y="2.171"/><use xlink:href="#8" y="4.342"/><use xlink:href="#9" y="6.513"/><use xlink:href="#10" y="8.684"/><use xlink:href="#11" y="10.855"/><use xlink:href="#12" y="13.026"/><use xlink:href="#13" y="15.197"/><use xlink:href="#14" y="17.368"/><use xlink:href="#15" y="19.539"/><use xlink:href="#16" y="21.71"/></svg><svg x="10960"><use xlink:href="#a"/><use xlink:href="#b" x="-.004" y="30.369"/><use xlink:href="#6"/><use xlink:href="#7" y="2.171"/><use xlink:href="#8" y="4.342"/><use xlink:href="#9" y="6.513"/><use xlink:href="#10" y="8.684"/><use xlink:href="#11" y="10.855"/><use xlink:href="#12" y="13.026"/><use xlink:href="#13" y="15.197"/><use xlink:href="#14" y="17.368"/><use xlink:href="#15" y="19.539"/><use xlink:href="#16" y="21.71"/><use xlink:href="#17" y="23.881"/><use xlink:href="#18" y="26.052"/><use xlink:href="#19" y="28.223"/></svg><svg x="11040"><use xlink:href="#a"/><use xlink:href="#b" x="-.004" y="32.54"/><use xlink:href="#6"/><use xlink:href="#7" y="2.171"/><use xlink:href="#8" y="4.342"/><use xlink:href="#9" y="6.513"/><use xlink:href="#10" y="8.684"/><use xlink:href="#11" y="10.855"/><use xlink:href="#12" y="13.026"/><use xlink:href="#13" y="15.197"/><use xlink:href="#14" y="17.368"/><use xlink:href="#15" y="19.539"/><use xlink:href="#16" y="21.71"/><use xlink:href="#17" y="23.881"/><use xlink:href="#18" y="26.052"/><use xlink:href="#19" y="28.223"/><use xlink:href="#20" y="30.394"/></svg><svg x="11120"><use xlink:href="#a"/><use xlink:href="#b" x="-.004" y="32.54"/><use xlink:href="#7"/><use xlink:href="#8" y="2.171"/><use xlink:href="#9" y="4.342"/><use xlink:href="#10" y="6.513"/><use xlink:href="#11" y="8.684"/><use xlink:href="#12" y="10.855"/><use xlink:href="#13" y="13.026"/><use xlink:href="#14" y="15.197"/><use xlink:href="#15" y="17.368"/><use xlink:href="#16" y="19.539"/><use xlink:href="#17" y="21.71"/><use xlink:href="#18" y="23.881"/><use xlink:href="#19" y="26.052"/><use xlink:href="#20" y="28.223"/><use xlink:href="#21" y="30.394"/></svg><svg x="11200"><use xlink:href="#a"/><use xlink:href="#b" x="-.004" y="32.54"/><use xlink:href="#8"/><use xlink:href="#9" y="2.171"/><use xlink:href="#10" y="4.342"/><use xlink:href="#11" y="6.513"/><use xlink:href="#12" y="8.684"/><use xlink:href="#13" y="10.855"/><use xlink:href="#14" y="13.026"/><use xlink:href="#15" y="15.197"/><use xlink:href="#16" y="17.368"/><use xlink:href="#17" y="19.539"/><use xlink:href="#18" y="21.71"/><use xlink:href="#19" y="23.881"/><use xlink:href="#20" y="26.052"/><use xlink:href="#21" y="28.223"/><use xlink:href="#22" y="30.394"/></svg><svg x="11280"><use xlink:href="#a"/><use xlink:href="#b" x="-.004" y="32.54"/><use xlink:href="#9"/><use xlink:href="#10" y="2.171"/><use xlink:href="#11" y="4.342"/><use xlink:href="#12" y="6.513"/><use xlink:href="#13" y="8.684"/><use xlink:href="#14" y="10.855"/><use xlink:href="#15" y="13.026"/><use xlink:href="#16" y="15.197"/><use xlink:href="#17" y="17.368"/><use xlink:href="#18" y="19.539"/><use xlink:href="#19" y="21.71"/><use xlink:href="#20" y="23.881"/><use xlink:href="#21" y="26.052"/><use xlink:href="#22" y="28.223"/><use xlink:href="#23" y="30.394"/></svg><svg x="11360"><use xlink:href="#a"/><use xlink:href="#b" x="-.004" y="32.54"/><use xlink:href="#10"/><use xlink:href="#11" y="2.171"/><use xlink:href="#12" y="4.342"/><use xlink:href="#13" y="6.513"/><use xlink:href="#14" y="8.684"/><use xlink:href="#15" y="10.855"/><use xlink:href="#16" y="13.026"/><use xlink:href="#17" y="15.197"/><use xlink:href="#18" y="17.368"/><use xlink:href="#19" y="19.539"/><use xlink:href="#20" y="21.71"/><use xlink:href="#21" y="23.881"/><use xlink:href="#22" y="26.052"/><use xlink:href="#23" y="28.223"/><use xlink:href="#24" y="30.394"/></svg><svg x="11440"><use xlink:href="#a"/><use xlink:href="#b" x="-.004" y="32.54"/><use xlink:href="#11"/><use xlink:href="#12" y="2.171"/><use xlink:href="#13" y="4.342"/><use xlink:href="#14" y="6.513"/><use xlink:href="#15" y="8.684"/><use xlink:href="#16" y="10.855"/><use xlink:href="#17" y="13.026"/><use xlink:href="#18" y="15.197"/><use xlink:href="#19" y="17.368"/><use xlink:href="#20" y="19.539"/><use xlink:href="#21" y="21.71"/><use xlink:href="#22" y="23.881"/><use xlink:href="#23" y="26.052"/><use xlink:href="#24" y="28.223"/><use xlink:href="#25" y="30.394"/></svg><svg x="11520"><use xlink:href="#a"/><use xlink:href="#b" x="-.004" y="32.54"/><use xlink:href="#12"/><use xlink:href="#13" y="2.171"/><use xlink:href="#14" y="4.342"/><use xlink:href="#15" y="6.513"/><use xlink:href="#16" y="8.684"/><use xlink:href="#17" y="10.855"/><use xlink:href="#18" y="13.026"/><use xlink:href="#19" y="15.197"/><use xlink:href="#20" y="17.368"/><use xlink:href="#21" y="19.539"/><use xlink:href="#22" y="21.71"/><use xlink:href="#23" y="23.881"/><use xlink:href="#24" y="26.052"/><use xlink:href="#25" y="28.223"/><use xlink:href="#26" y="30.394"/></svg><svg x="11600"><use xlink:href="#a"/><use xlink:href="#b" x="-.004" y="32.54"/><use xlink:href="#13"/><use xlink:href="#14" y="2.171"/><use xlink:href="#15" y="4.342"/><use xlink:href="#16" y="6.513"/><use xlink:href="#17" y="8.684"/><use xlink:href="#18" y="10.855"/><use xlink:href="#19" y="13.026"/><use xlink:href="#20" y="15.197"/><use xlink:href="#21" y="17.368"/><use xlink:href="#22" y="19.539"/><use xlink:href="#23" y="21.71"/><use xlink:href="#24" y="23.881"/><use xlink:href="#25" y="26.052"/><use xlink:href="#26" y="28.223"/><use xlink:href="#27" y="30.394"/></svg><svg x="11680"><use xlink:href="#a"/><use xlink:href="#b" x="-.004" y="32.54"/><use xlink:href="#14"/><use xlink:href="#15" y="2.171"/><use xlink:href="#16" y="4.342"/><use xlink:href="#17" y="6.513"/><use xlink:href="#18" y="8.684"/><use xlink:href="#19" y="10.855"/><use xlink:href="#20" y="13.026"/><use xlink:href="#21" y="15.197"/><use xlink:href="#22" y="17.368"/><use xlink:href="#23" y="19.539"/><use xlink:href="#24" y="21.71"/><use xlink:href="#25" y="23.881"/><use xlink:href="#26" y="26.052"/><use xlink:href="#27" y="28.223"/><use xlink:href="#28" y="30.394"/></svg><svg x="11760"><use xlink:href="#a"/><use xlink:href="#b" x="-.004" y="32.54"/><use xlink:href="#14"/><use xlink:href="#15" y="2.171"/><use xlink:href="#16" y="4.342"/><use xlink:href="#17" y="6.513"/><use xlink:href="#18" y="8.684"/><use xlink:href="#19" y="10.855"/><use xlink:href="#20" y="13.026"/><use xlink:href="#21" y="15.197"/><use xlink:href="#22" y="17.368"/><use xlink:href="#23" y="19.539"/><use xlink:href="#24" y="21.71"/><use xlink:href="#25" y="23.881"/><use xlink:href="#26" y="26.052"/><use xlink:href="#27" y="28.223"/><use xlink:href="#28" y="30.394"/></svg><svg x="11840"><use xlink:href="#a"/><use xlink:href="#b" x="-.004" y="32.54"/><use xlink:href="#14"/><use xlink:href="#15" y="2.171"/><use xlink:href="#16" y="4.342"/><use xlink:href="#17" y="6.513"/><use xlink:href="#18" y="8.684"/><use xlink:href="#19" y="10.855"/><use xlink:href="#20" y="13.026"/><use xlink:href="#21" y="15.197"/><use xlink:href="#22" y="17.368"/><use xlink:href="#23" y="19.539"/><use xlink:href="#24" y="21.71"/><use xlink:href="#25" y="23.881"/><use xlink:href="#26" y="26.052"/><use xlink:href="#27" y="28.223"/><use xlink:href="#28" y="30.394"/></svg><svg x="11920"><use xlink:href="#a"/><use xlink:href="#b" x="-.004" y="32.54"/><use xlink:href="#14"/><use xlink:href="#15" y="2.171"/><use xlink:href="#16" y="4.342"/><use xlink:href="#17" y="6.513"/><use xlink:href="#18" y="8.684"/><use xlink:href="#19" y="10.855"/><use xlink:href="#20" y="13.026"/><use xlink:href="#21" y="15.197"/><use xlink:href="#22" y="17.368"/><use xlink:href="#23" y="19.539"/><use xlink:href="#24" y="21.71"/><use xlink:href="#25" y="23.881"/><use xlink:href="#26" y="26.052"/><use xlink:href="#27" y="28.223"/><use xlink:href="#28" y="30.394"/></svg><svg x="12000"><use xlink:href="#a"/><use xlink:href="#b" x="-.004" y="32.54"/><use xlink:href="#14"/><use xlink:href="#15" y="2.171"/><use xlink:href="#16" y="4.342"/><use xlink:href="#17" y="6.513"/><use xlink:href="#18" y="8.684"/><use xlink:href="#19" y="10.855"/><use xlink:href="#20" y="13.026"/><use xlink:href="#21" y="15.197"/><use xlink:href="#22" y="17.368"/><use xlink:href="#23" y="19.539"/><use xlink:href="#24" y="21.71"/><use xlink:href="#25" y="23.881"/><use xlink:href="#26" y="26.052"/><use xlink:href="#27" y="28.223"/><use xlink:href="#28" y="30.394"/></svg><svg x="12080"><use xlink:href="#a"/><use xlink:href="#b" x="-.004" y="32.54"/><use xlink:href="#14"/><use xlink:href="#15" y="2.171"/><use xlink:href="#16" y="4.342"/><use xlink:href="#17" y="6.513"/><use xlink:href="#18" y="8.684"/><use xlink:href="#19" y="10.855"/><use xlink:href="#20" y="13.026"/><use xlink:href="#21" y="15.197"/><use xlink:href="#22" y="17.368"/><use xlink:href="#23" y="19.539"/><use xlink:href="#24" y="21.71"/><use xlink:href="#25" y="23.881"/><use xlink:href="#26" y="26.052"/><use xlink:href="#27" y="28.223"/><use xlink:href="#28" y="30.394"/></svg><svg x="12160"><use xlink:href="#a"/><use xlink:href="#b" x="-.004" y="32.54"/><use xlink:href="#14"/><use xlink:href="#15" y="2.171"/><use xlink:href="#16" y="4.342"/><use xlink:href="#17" y="6.513"/><use xlink:href="#18" y="8.684"/><use xlink:href="#19" y="10.855"/><use xlink:href="#20" y="13.026"/><use xlink:href="#21" y="15.197"/><use xlink:href="#22" y="17.368"/><use xlink:href="#23" y="19.539"/><use xlink:href="#24" y="21.71"/><use xlink:href="#25" y="23.881"/><use xlink:href="#26" y="26.052"/><use xlink:href="#27" y="28.223"/><use xlink:href="#28" y="30.394"/></svg></svg></g></g></svg></svg>